<svg width="16" height="12" viewBox="0 0 16 12" fill="none" xmlns="http://www.w3.org/2000/svg">
<path fill-rule="evenodd" clip-rule="evenodd" d="M15.7148 6C15.7148 5.58579 15.3791 5.25 14.9648 5.25H0.964844C0.55063 5.25 0.214844 5.58579 0.214844 6C0.214844 6.41421 0.55063 6.75 0.964844 6.75H14.9648C15.3791 6.75 15.7148 6.41421 15.7148 6Z" fill="#F2C917"/>
<path fill-rule="evenodd" clip-rule="evenodd" d="M15.7148 1C15.7148 0.585786 15.3791 0.25 14.9648 0.25H0.964844C0.55063 0.25 0.214844 0.585786 0.214844 1C0.214844 1.41421 0.55063 1.75 0.964844 1.75H14.9648C15.3791 1.75 15.7148 1.41421 15.7148 1Z" fill="#F2C917"/>
<path fill-rule="evenodd" clip-rule="evenodd" d="M15.7148 11C15.7148 10.5858 15.3791 10.25 14.9648 10.25H0.964844C0.55063 10.25 0.214844 10.5858 0.214844 11C0.214844 11.4142 0.55063 11.75 0.964844 11.75H14.9648C15.3791 11.75 15.7148 11.4142 15.7148 11Z" fill="#F2C917"/>
</svg>
